<svg xmlns="http://www.w3.org/2000/svg" viewBox="0 0 724.03 599.26"><defs><style>.cls-1{fill:#58595b;}</style></defs><title>Asset 2</title><g id="Layer_2" data-name="Layer 2"><g id="Layer_1-2" data-name="Layer 1"><path class="cls-1" d="M717.84,295.47l0,0L674.47,228h0a20.84,20.84,0,0,1-3.22-13.18A187.3,187.3,0,0,0,636,86.5c-26.58-36.37-66-63-110.88-75.12H525l-.13,0h0a298.73,298.73,0,0,0-162.58.22,299.37,299.37,0,0,0-163.58-.32h0A205.7,205.7,0,0,0,88.8,86.47c-27.65,37.4-40.5,83-36.19,128.36A20.77,20.77,0,0,1,49.4,228h0L6,295.44l0,0a38.71,38.71,0,0,0,27.52,59h0l3.14.36-1.4,5.64a36.69,36.69,0,0,0,7.34,33.79,42.1,42.1,0,0,0,11.46,44.64l0,.05v0a70.63,70.63,0,0,0,27.54,59.38,71.37,71.37,0,0,0,43.55,14.92A69.77,69.77,0,0,0,146.46,510l.07,0,.1,0,9.56-3.18A15.06,15.06,0,0,1,168,507.89a14.28,14.28,0,0,1,6.75,9.46h0A108.84,108.84,0,0,1,176.7,553a1.34,1.34,0,0,1,0,.2c0,.06,0,.12,0,.19a81.45,81.45,0,0,0,1.07,21.18h0a30,30,0,0,0,29.41,24.67,28.93,28.93,0,0,0,7.62-1c.38-.09.76-.19,1.14-.31l132.74-42.17h0a43.57,43.57,0,0,1,26.54,0h0l132.74,42.17c.38.12.76.22,1.14.31a29.49,29.49,0,0,0,7.78,1.07,30,30,0,0,0,29.55-24.7h0a81.59,81.59,0,0,0,1-21.11l0-.19a1.21,1.21,0,0,0,0-.19,109.38,109.38,0,0,1,2-35.71h0a14.08,14.08,0,0,1,18.29-10.63l9.57,3.19.1,0,.07,0a69.66,69.66,0,0,0,21.24,3.31A71.66,71.66,0,0,0,670,439v0l.05-.05a42.13,42.13,0,0,0,11.51-44.61,37.08,37.08,0,0,0,7-33.83l-1.39-5.6c1.15-.11,2.29-.24,3.43-.39h0a38.44,38.44,0,0,0,27.22-59ZM348.27,476.23a2.92,2.92,0,0,1-2-.81l-5.79-17.89h42.78L377.45,475a2.41,2.41,0,0,1-1.86,1.2Zm86.81-165.8h0a59.38,59.38,0,0,0-25.77,48.94v33.68H345a10,10,0,0,0,0,20h64.29v4.52a9.84,9.84,0,0,1-10,9.95H324.51a9.84,9.84,0,0,1-9.94-9.95V377.4h64a10,10,0,1,0,0-20H314.51a59.2,59.2,0,0,0-25.43-47h0A129,129,0,0,1,232.9,204.22,161.62,161.62,0,0,1,321.49,59.67a271.22,271.22,0,0,1,40.77-16.79,272.24,272.24,0,0,1,40.36,16.65,161.74,161.74,0,0,1,88.63,144.68A129,129,0,0,1,435.08,310.43ZM623.88,474.6a40.83,40.83,0,0,1-37.31,6.8l-9.66-3.22-.14,0-.13,0a44.07,44.07,0,0,0-56.56,32.76h0A139.12,139.12,0,0,0,517.5,556a51.12,51.12,0,0,1-.57,12.9c0,.12-.06.23-.08.34L384.29,527.12h0a73.46,73.46,0,0,0-44.73,0h0l-132.3,42a51.28,51.28,0,0,1-.7-13.24,138.85,138.85,0,0,0-2.49-45h0a44.19,44.19,0,0,0-56.86-32.76l-.13,0-.14,0-9.66,3.22a41.12,41.12,0,0,1-53.19-41h0a29.59,29.59,0,0,0-9.7-23.55l0,0a12.4,12.4,0,0,1-1.13-16.9.18.18,0,0,0,.05-.07,13.23,13.23,0,0,0,.84-1.13l.11-.17c.2-.3.38-.62.56-.95l.25-.47.15-.28.12-.31c.13-.28.26-.57.37-.87s.13-.37.19-.56.18-.54.25-.82.11-.44.16-.66.1-.48.14-.73.08-.51.11-.76,0-.43.06-.65,0-.54,0-.82V390c0-.27,0-.54,0-.81s0-.43-.07-.64-.06-.51-.11-.77-.09-.46-.14-.69-.1-.45-.16-.68-.15-.5-.23-.74a6.26,6.26,0,0,0-.21-.61c-.09-.25-.2-.51-.31-.76s-.17-.37-.26-.55-.25-.49-.38-.73l-.33-.56-.42-.65c-.14-.2-.29-.4-.44-.59l-.43-.54q-.27-.33-.57-.63a5.66,5.66,0,0,0-.42-.43q-.33-.33-.69-.63c-.09-.08-.16-.16-.25-.23l-.19-.14-.71-.53c-.19-.13-.38-.27-.58-.39s-.4-.25-.61-.36-.51-.29-.76-.42c-.08,0-.15-.08-.22-.11a7.09,7.09,0,0,1-3.92-8.39c0-.1,0-.2.08-.3l.12-.42,5.94-24.06,0-.15c.07-.31.13-.63.18-.95s.07-.38.1-.57,0-.52.07-.79,0-.51.05-.76,0-.4,0-.6,0-.64,0-1v-.16c0-.13,0-.24,0-.36,0-.32-.08-.64-.14-1s-.08-.4-.12-.6-.13-.54-.2-.8-.14-.47-.22-.7-.15-.44-.23-.65-.21-.5-.32-.75-.17-.38-.27-.57-.25-.48-.38-.72-.22-.37-.34-.55-.27-.42-.42-.63-.28-.39-.43-.58l-.42-.52c-.18-.21-.36-.41-.56-.62l-.39-.39c-.22-.21-.44-.42-.68-.63l-.37-.3c-.25-.21-.51-.4-.78-.59l-.39-.26q-.39-.27-.81-.51l-.49-.26-.77-.38-.65-.27-.68-.25c-.27-.1-.54-.17-.82-.25s-.27-.09-.42-.12l-.19,0c-.27-.07-.56-.12-.84-.17l-.67-.11-.69-.06c-.29,0-.57-.05-.86-.05h-.52c-.34,0-.68,0-1,0h-.15a76.83,76.83,0,0,1-17-.43h0a8.73,8.73,0,0,1-6.18-13h0L74.6,244.28h0A50.88,50.88,0,0,0,82.47,212C75.12,134.54,127.39,62.27,206.76,40.14h0a270.05,270.05,0,0,1,103.53-8.41l-2.46,1.22a192.25,192.25,0,0,0-105,171.28,159,159,0,0,0,69.18,130.93h0a29.26,29.26,0,0,1,12.49,24.23v58.2a40,40,0,0,0,23.17,36.24L318,485.45c.06.18.13.36.2.54s.06.19.1.29l.06.15.27.62c4.86,11.5,16.66,19.18,29.68,19.18h27.32a32.46,32.46,0,0,0,29-18.3l.26-.52L405,487s0-.08,0-.13c.16-.35.3-.72.43-1.09,0-.09.07-.17.1-.25v0l10.48-31.7a40,40,0,0,0,23.24-36.27v-58.2a29.41,29.41,0,0,1,12.77-24.23h0A159,159,0,0,0,521.25,204.2h0a192.43,192.43,0,0,0-105-171.39c-.66-.34-1.33-.66-2-1A269.33,269.33,0,0,1,517,40.26l.09,0,.09,0C596.56,61.58,648.81,133.78,641.38,212a51,51,0,0,0,7.85,32.27h0l43.34,67.39h0a8.45,8.45,0,0,1-5.88,13h0a78.77,78.77,0,0,1-17.29.43h-.17l-1,0h-.56l-.83.05-.71.07c-.22,0-.44.06-.65.1s-.58.1-.87.17l-.18,0c-.14,0-.26.08-.4.12s-.57.16-.85.25l-.64.24-.69.29c-.25.11-.49.23-.73.36l-.54.29c-.26.14-.51.3-.76.46l-.45.31-.72.54-.42.36c-.22.18-.43.38-.63.58l-.44.44c-.18.18-.35.37-.52.57s-.31.37-.45.56-.27.35-.4.53-.31.45-.45.68-.21.34-.31.51-.28.5-.41.76-.17.36-.25.54-.23.5-.33.76-.15.43-.22.65-.16.46-.23.7-.13.53-.19.8-.09.4-.13.6-.1.64-.13,1c0,.12,0,.23-.05.36a.86.86,0,0,0,0,.16c0,.31,0,.63,0,1s0,.4,0,.6,0,.51,0,.76,0,.53.08.79.06.38.09.57.11.64.18.95a.8.8,0,0,1,0,.15l5.94,24.06c0,.14.09.27.13.41a2.82,2.82,0,0,0,.07.31,7,7,0,0,1-3.51,8.5l-.21.11c-.26.13-.52.27-.77.42s-.41.23-.61.36l-.57.39c-.25.17-.48.34-.71.53l-.2.14c-.09.07-.16.15-.25.23s-.47.41-.69.63l-.42.42c-.19.21-.39.42-.57.64s-.29.35-.43.54-.29.39-.43.59-.29.43-.43.65l-.32.55c-.14.25-.27.49-.39.74s-.17.36-.26.55-.21.51-.31.76l-.21.61c-.08.24-.16.49-.22.74s-.12.45-.17.68-.1.46-.14.69-.08.51-.11.77-.05.42-.07.63,0,.55,0,.83v.61c0,.27,0,.55,0,.83l.06.63c0,.26.07.52.11.78s.09.47.14.71.1.45.17.68.15.54.24.8.13.39.2.58.23.57.36.85a3.05,3.05,0,0,0,.13.32c0,.1.1.19.15.29a4.92,4.92,0,0,0,.24.45c.18.34.37.66.58,1a.67.67,0,0,0,.09.14,12,12,0,0,0,.84,1.14l0,.07a12.18,12.18,0,0,1-1.24,16.79h0a29.55,29.55,0,0,0-9.72,23.56h0A40.75,40.75,0,0,1,623.88,474.6Z"/><path class="cls-1" d="M371.92,102.43a12.51,12.51,0,0,0-20,0l-50.18,66.82a12.49,12.49,0,0,0,10,20h37.69v70.06a12.5,12.5,0,0,0,25,0V189.25h37.68a12.5,12.5,0,0,0,10-20Zm-35.16,61.82,25.17-33.5,25.16,33.5Z"/></g></g></svg>