<svg xmlns="http://www.w3.org/2000/svg" viewBox="0 0 165.84 165.67"><title>Asset 4</title><g id="Layer_2" data-name="Layer 2"><g id="Layer_1-2" data-name="Layer 1"><path d="M54.75,91.43q0,10.92,4.4,16.08a14,14,0,0,0,10.95,5.17,18.25,18.25,0,0,0,9.15-2.41,22.63,22.63,0,0,0,6.43-5.43c3-3.49,5.66-8.57,7.86-15.29A60.19,60.19,0,0,0,96.83,70.8c0-6.45-1.5-11.44-4.49-14.9A14.43,14.43,0,0,0,81,50.7q-7.39,0-13.65,5.73T57.92,72.71a66.28,66.28,0,0,0-3.17,18.72m92.75,35.33h18.34a62.27,62.27,0,0,1-26.41,27.49q-20.33,11.4-49.67,11.42-28.4,0-49-9.6t-30.7-28.34A84.78,84.78,0,0,1,0,86.91a92.41,92.41,0,0,1,11.44-45.1q11.4-20.87,31.28-31.33T88.12,0q21.64,0,38.49,8.42a59.61,59.61,0,0,1,25.76,24,67.09,67.09,0,0,1,8.9,33.92A63.76,63.76,0,0,1,147.77,106q-16.9,22.36-43.37,22.36-7.12,0-10.74-2.46a12.09,12.09,0,0,1-4.81-7.28c-6.75,6.49-14.56,9.74-23.36,9.74q-14.25,0-23.68-9.83T32.39,92.34A64.21,64.21,0,0,1,43.72,55.49Q57.49,35.2,79,35.21c10.18,0,17.72,3.9,22.56,11.71l2.15-9.6h22.68l-13,61.56a52.15,52.15,0,0,0-1.2,7.57,4.51,4.51,0,0,0,1,3.2,3,3,0,0,0,2.35,1.09c2.76,0,6.31-1.67,10.68-5a47.53,47.53,0,0,0,14.17-17.52,51,51,0,0,0,5.43-22.8q0-21.12-15.28-35.35T87.76,15.85q-23.28,0-39.49,9.5A60.41,60.41,0,0,0,23.88,52.17a82.67,82.67,0,0,0-8.21,36,62,62,0,0,0,9.15,33.07A53.32,53.32,0,0,0,50.53,143q16.5,6.81,37.85,6.83c13.67,0,25.47-1.93,35.3-5.78A54.67,54.67,0,0,0,147.5,126.76Z"/></g></g></svg>