<svg xmlns="http://www.w3.org/2000/svg" viewBox="0 0 719.17 719.48"><defs><style>.cls-1{fill:#58595b;}</style></defs><title>Asset 3</title><g id="Layer_2" data-name="Layer 2"><g id="Layer_1-2" data-name="Layer 1"><path class="cls-1" d="M290.79,306.12a40.68,40.68,0,0,0-37-24.25h-.45a29,29,0,1,1,28.47-28.3V254a40.34,40.34,0,0,0,40.31,40.63,40.06,40.06,0,0,0,27.08-10.65,3.83,3.83,0,0,0,.28-.29,3.58,3.58,0,0,0,.29-.26l42-42h0a45,45,0,0,0,0-63.6h0L351,136.89c-1.14-1.4-1.26-4.13-.26-6.45a6.62,6.62,0,0,1,5.64-4,63.62,63.62,0,0,0,58-38.44A63.19,63.19,0,1,0,293,63.45,6.51,6.51,0,0,1,289.3,69a6.84,6.84,0,0,1-6.72-.53l-41-40.65,0,0a44.8,44.8,0,0,0-63.17.06h0L27.29,178.68h0a45,45,0,0,0,0,63.6h0l40.88,40.88c1.52,1.81,1.39,4.52.56,6.44a6.6,6.6,0,0,1-5.6,4c-25.12.24-48.35,15.47-58,38.14a63.19,63.19,0,1,0,121.32,24.57,6.51,6.51,0,0,1,3.7-5.58,5.84,5.84,0,0,1,6.09.82l40.93,40.93a44.5,44.5,0,0,0,31.71,13.1h.25a45,45,0,0,0,31.78-13.25h0l41.87-41.87c.11-.11.21-.23.31-.34s.2-.18.29-.28l.38-.46c.1-.11.19-.22.28-.34A40.76,40.76,0,0,0,290.79,306.12Zm-81.86,65.44h-.07a10.76,10.76,0,0,1-7.67-3.14L159.78,327l-.31-.29c-.1-.09-.19-.2-.3-.29s-.31-.26-.46-.39l-.35-.3a39.86,39.86,0,0,0-41.75-6.23A40.3,40.3,0,0,0,92.52,353.9c0,.15,0,.29,0,.44s0,.17,0,.26,0,.44,0,.65,0,.43,0,.65a29.2,29.2,0,1,1-56-10.85c4.39-10.31,15.62-17.48,27.34-17.48H64l.92,0,.53,0,.43,0A40.65,40.65,0,0,0,94,261.1l-.32-.39c-.12-.13-.23-.28-.35-.41L93,260c-.11-.1-.2-.22-.3-.33l-41.41-41.4h0a11,11,0,0,1,0-15.51L202.41,52h0a10.64,10.64,0,0,1,15.21,0l0,0,0,0,41.72,41.41c.17.17.36.32.54.48s.33.33.52.49l.15.12.18.14a40.37,40.37,0,0,0,25.6,9,41.41,41.41,0,0,0,16.44-3.39,40.33,40.33,0,0,0,24.09-34.39c0-.15,0-.29,0-.44s0-.17,0-.26,0-.43,0-.65,0-.43,0-.65a29.19,29.19,0,1,1,56,10.85,29.69,29.69,0,0,1-27.55,17.79l-.48,0h-.47l-.54,0-.42,0a40.42,40.42,0,0,0-34.07,24.33c-6.22,14.37-4,30.73,5.6,42,.1.14.22.27.33.4s.23.28.35.42.2.19.29.29.21.24.32.35l41.4,41.4h0a10.95,10.95,0,0,1,0,15.51L326.22,258.9a6.11,6.11,0,0,1-6.7,1.08,6.43,6.43,0,0,1-3.66-6.09.43.43,0,0,0,0,0,63.27,63.27,0,1,0-63.11,62h.9a6.63,6.63,0,0,1,6,4,6.86,6.86,0,0,1-1.42,7l-41.4,41.4h0A11.24,11.24,0,0,1,208.93,371.56Z"/><path class="cls-1" d="M655.6,426.23h.29a63.23,63.23,0,1,0-63.15-62.36v.06a5.69,5.69,0,0,1-3.7,4.84,7.44,7.44,0,0,1-7-.82l-40.62-40.62h0a45,45,0,0,0-63.59,0l0,0,0,0-41.61,41.92c-1.43,1.4-4.34,1.71-6.63.7a6.65,6.65,0,0,1-4-6.07v-.05a63.06,63.06,0,1,0-121,23.89c9.93,23.3,33,38.37,58.94,38.41h0a6.65,6.65,0,0,1,6.17,3.67,6.86,6.86,0,0,1-1.44,7.06L327,478.43h0l0,0,0,0A45,45,0,0,0,327,542h0l41.16,41.16c1.32,1.41,1.07,4,.28,5.85a6.78,6.78,0,0,1-5.71,4c-25.59.33-48.38,15.32-58.21,38.4a63.19,63.19,0,1,0,121.32,23.88v-.05c0-1.52,1.5-3.75,4-4.84A6.07,6.07,0,0,1,436,651l40.85,40.85a45,45,0,0,0,63.5.09.1.1,0,0,0,0,0l42-41.72c.12-.12.22-.25.34-.37l.29-.29c.12-.13.23-.27.34-.41s.22-.24.32-.37a40.61,40.61,0,0,0-30.48-67.18h-.45A29.2,29.2,0,1,1,581.6,553v.19c0,.07,0,.13,0,.19A40.38,40.38,0,0,0,621.91,594,40.11,40.11,0,0,0,649,583.36l.25-.25.28-.25,42-41.72,0,0,0,0a45,45,0,0,0,0-63.6h0L650.7,436.62a6.69,6.69,0,0,1,4.9-10.39Zm-40,127.09v-.05a63.19,63.19,0,1,0-63.39,62.34h.87a6.66,6.66,0,0,1,6,4,6.8,6.8,0,0,1-1.1,7l-41.52,41.21s0,0,0,0l0,0a11,11,0,0,1-15.51,0l-41.41-41.41c-.12-.11-.25-.21-.37-.33l-.34-.34c-.12-.1-.25-.19-.37-.3l-.4-.33a40.07,40.07,0,0,0-41.69-5.89c-14.88,6.45-24.49,20.6-24.49,36,0,.06,0,.11,0,.17a1.08,1.08,0,0,0,0,.18,29.2,29.2,0,1,1-56.05-10.85c4.59-10.78,15.5-17.74,27.79-17.74h0l.93,0,.52,0,.46,0a41,41,0,0,0,34.11-24.37c6.47-14.92,3.75-31.76-6.93-42.91l-.13-.12a.86.86,0,0,0-.13-.14L351.06,518h0a10.95,10.95,0,0,1,0-15.51s0,0,0,0l0,0,41.72-42c.1-.1.18-.21.28-.31s.18-.17.26-.27.29-.34.44-.51l.26-.31a40.16,40.16,0,0,0-30.34-66.83h-.13c-12.28,0-23.18-7-27.77-17.74a29.09,29.09,0,1,1,55.75-10.82,1.21,1.21,0,0,0,0,.19c0,.06,0,.13,0,.19a40.73,40.73,0,0,0,40.82,40.59,39.37,39.37,0,0,0,27.69-11.12l.05-.06.06,0,41.68-42a11,11,0,0,1,15.51,0h0l41.4,41.4c.18.18.36.33.54.49s.37.36.57.53l.12.1.16.12a41.22,41.22,0,0,0,26.16,9.3A40.8,40.8,0,0,0,602.56,400a39.51,39.51,0,0,0,24.18-36c0-.06,0-.12,0-.17a1.08,1.08,0,0,0,0-.18,29.2,29.2,0,1,1,56,10.85,29.5,29.5,0,0,1-27.52,17.79h-.35l-.49,0H654l-.51.05-.44,0a40.42,40.42,0,0,0-34.08,24.33c-6.06,14-3.66,30.73,5.9,42l.34.41.34.41.3.3c.11.11.2.24.32.35l41.4,41.4h0a11,11,0,0,1,0,15.5L626,558.32a6.09,6.09,0,0,1-6.71,1.09A6.46,6.46,0,0,1,615.59,553.32Z"/></g></g></svg>