<svg xmlns="http://www.w3.org/2000/svg" viewBox="0 0 138.63 206.76"><defs><style>.cls-1{fill-rule:evenodd;}</style></defs><title>Asset 5</title><g id="Layer_2" data-name="Layer 2"><g id="Layer_1-2" data-name="Layer 1"><path class="cls-1" d="M97.79,165.14a109.86,109.86,0,0,1,16.54,4c8,2.67,19.39,7.94,19.39,15.91a9.68,9.68,0,0,1-.63,3.43c-2.81,7.53-14.33,11.72-23,13.91a136.13,136.13,0,0,1-19.29,3.31,206.26,206.26,0,0,1-21.53,1.1,206,206,0,0,1-21.53-1.1,136.27,136.27,0,0,1-19.3-3.31C19.87,200.16,8.35,196,5.54,188.44A9.68,9.68,0,0,1,4.91,185c0-8,11.34-13.24,19.4-15.91a109.44,109.44,0,0,1,16.53-4l3.8,4.45A96.27,96.27,0,0,0,30.19,173c-5.82,1.93-15.46,6.09-15.46,12a4.6,4.6,0,0,0,.21,1.37c1.62,5.22,12.29,8.2,18,9.48A136.52,136.52,0,0,0,50,198.42c6.42.6,12.9.86,19.36.86s12.94-.26,19.35-.86a136.52,136.52,0,0,0,17.06-2.56c5.67-1.28,16.34-4.26,18-9.48a4.6,4.6,0,0,0,.21-1.37c0-5.88-9.64-10-15.46-12A95.69,95.69,0,0,0,94,169.59l3.8-4.45"/><path class="cls-1" d="M69.32,33.83a28.71,28.71,0,1,1-28.71,28.7,28.7,28.7,0,0,1,28.71-28.7m0,156.64h0c-1.66-2.94-12.94-15.47-15.85-19.21C24.9,137.73.41,110.43,0,68.84c0-.6,0-1.21,0-1.81A65.53,65.53,0,0,1,1.13,55.28C6.69,24.19,32.36,1.08,66.87,0h.19q1.13,0,2.25,0h0q1.14,0,2.25,0h.19c34.51,1,60.18,24.15,65.74,55.24A65.53,65.53,0,0,1,138.62,67c0,.6,0,1.21,0,1.81-.41,41.59-24.9,68.89-53.46,102.42C82.26,175,71,187.53,69.32,190.47Z"/></g></g></svg>