<svg xmlns="http://www.w3.org/2000/svg" viewBox="0 0 722.44 674.8"><defs><style>.cls-1{fill:#58595b;}</style></defs><title>Asset 1</title><g id="Layer_2" data-name="Layer 2"><g id="Layer_1-2" data-name="Layer 1"><path class="cls-1" d="M721,425.83v0L654.27,212a32.14,32.14,0,0,0-40.18-21.09h0L565.63,206l0,0a32.26,32.26,0,0,0-22.46,31.08L501,250.25h0a12.62,12.62,0,0,1-4.46.76L365.6,240.14h0a41.37,41.37,0,0,0-25.74,6.48l0,0L326.67,255a318.8,318.8,0,0,0-66.31-.35c-1.89.19-5.47.22-8.21-1.69h0L228.64,236.5a31.45,31.45,0,0,0,1.74-16.62,32,32,0,0,0-13.69-20.64l0,0a0,0,0,0,1,0,0l-41.78-28.78-.05,0a32,32,0,0,0-44.24,7.94h0L6,354.91H6a32.14,32.14,0,0,0,7.47,44.78h0l41.4,29.12h0l.35.22A31.41,31.41,0,0,0,73,434.61a32.13,32.13,0,0,0,20.63-7.52l26.4,18.65c2.23,1.84,3.2,4.34,4.71,10.25,0,.12.07.24.1.36s0,.16.07.25a159.67,159.67,0,0,0,10.76,26.89L129,492.68l-.06.09c-15.36,20.43-11.3,49.82,9.18,65.74a47.11,47.11,0,0,0,28.29,9.92,46.7,46.7,0,0,0,.76,6.52,48,48,0,0,0,20.11,30.64A47.12,47.12,0,0,0,227.2,612a51.58,51.58,0,0,0,23.25,26.69,48.1,48.1,0,0,0,23.72,6.27,48.83,48.83,0,0,0,15.77-2.65,47.24,47.24,0,0,0,20.72,26,47.87,47.87,0,0,0,24.12,6.5,48.66,48.66,0,0,0,35.59-15.5l13.11,8.06,0,0h0c.39.24.79.45,1.19.65l.12.07.33.15.36.16a51.12,51.12,0,0,0,21.66,4.92,46.83,46.83,0,0,0,39.85-21.83,45.66,45.66,0,0,0,7-27c13.76-.13,26.83-5.34,35.68-15.55a48.52,48.52,0,0,0,11.75-35.78l-.09-.87a47.32,47.32,0,0,0,28.74-14.14,49.57,49.57,0,0,0,14-31.83A47.52,47.52,0,0,0,589.83,483a44.9,44.9,0,0,0-.12-8.68l24.48-7.61a32,32,0,0,0,27.53,15.88A31,31,0,0,0,650,481.4l.51-.13.59-.16h.06L700,465.64l.06,0a32,32,0,0,0,18.66-15.4A31.4,31.4,0,0,0,721,425.83ZM690.9,437l-48.74,15.43a1.83,1.83,0,0,1-2.28-1.39L574.94,242.93a0,0,0,0,1,0,0v0l-1.74-5.59h0a2.33,2.33,0,0,1,1.38-2.62h0L623,219.56h0a2.15,2.15,0,0,1,2.63,1.38l66.71,213.8h0a1.6,1.6,0,0,1-.1,1.28,2.09,2.09,0,0,1-1.28,1h-.06ZM79.67,396.79a14.83,14.83,0,0,0-1.91,2.7l-3,4.21h0a1.87,1.87,0,0,1-2.63.63h0l-41.4-29.12h0A1.69,1.69,0,0,1,30,374a2.44,2.44,0,0,1,.42-1.8h0L155.09,195.64h0a1.92,1.92,0,0,1,2.71-.54l0,0h0l41.73,28.76a4.25,4.25,0,0,1,1.23,1.23,3.89,3.89,0,0,1-.7,1.65h0l-2.78,3.93a15.6,15.6,0,0,0-1.12,1.4,13.42,13.42,0,0,0-.88,1.43ZM153,510.67l.1-.15.1-.11,12.26-16.74.1-.14,9.76-13.32c.19-.26.36-.53.53-.8a17.81,17.81,0,0,1,30.52,3.51,18.45,18.45,0,0,1-2.2,18.12L180.8,531.9a17.21,17.21,0,0,1-24.29,2.92C148.76,528.8,147.21,518.19,153,510.67Zm51.13,70.1a17.82,17.82,0,0,1-7.48-11.36A15.81,15.81,0,0,1,199,557.58L228.17,519l.06-.08s0,0,.05-.07c.57-.77,1.11-1.57,1.64-2.38,7.62-10.09,18.53-13,26.62-7.11,7.5,5.48,9.35,16.34,4,23.72l-27.87,37.17,0,.05-4.6,6.13-.07.11a.39.39,0,0,0-.08.1A17.27,17.27,0,0,1,204.11,580.77Zm61.1,31.78c-5.29-3-9-7.46-10.29-12.28-1-4-.27-8.27,2.28-12.64l24.57-32.77a17.92,17.92,0,0,1,12.71-6,20.38,20.38,0,0,1,14.78,5.43,19.51,19.51,0,0,1,2.32,25.61l-.1.12c-.1.12-.21.23-.3.35l-15.69,19.82h0l-4.31,5.45-.11.16-.13.15C285.39,613.32,274.78,618,265.21,612.55Zm60.53,29.82A17.74,17.74,0,0,1,318,631.31a18.14,18.14,0,0,1,1.74-13.39L334,599.84c.17-.19.34-.37.5-.57,6.64-6.9,16.44-5.37,22.83-.15A17.52,17.52,0,0,1,360,623.2l0,0,0,0-10.39,14.2A18.43,18.43,0,0,1,325.74,642.37Zm234.2-162A17.62,17.62,0,0,1,532,493l-.12-.08-.11-.09-57.22-40.72a15,15,0,1,0-17.39,24.44l53.36,38a13.16,13.16,0,0,1,3.72,9.13,19.43,19.43,0,0,1-5.58,13.64c-6.57,6.78-17.06,7.17-25.49,1l-.09-.06a.39.39,0,0,1-.1-.08l-48.8-34.75a15,15,0,1,0-17.4,24.43l48.09,34.26a19.82,19.82,0,0,1,6.75,13.45,18.72,18.72,0,0,1-4.49,13.82c-6.49,7.48-21.3,6.89-31.68-1.28l-.31-.22-.28-.22-20.29-14.4a15,15,0,0,0-17.36,24.47l19.66,14c6.48,5.6,10.21,15.44,4.91,23.76-4.78,7.51-14.53,10-23.32,5.93L388,634.93a47.4,47.4,0,0,0-11.7-59,48.8,48.8,0,0,0-31.12-11.32,49.4,49.4,0,0,0-15.22-32,50.29,50.29,0,0,0-36.54-13.72,47.34,47.34,0,0,0-19.2-33.7,45.11,45.11,0,0,0-38-7.43,47.29,47.29,0,0,0-2.42-7,47.8,47.8,0,0,0-77.36-14.62q-1.45-3.92-2.68-8c-1.71-6.66-4.62-17.39-14.69-25.65l-.19-.15c-.16-.13-.31-.27-.48-.4l-.31-.22c-.1-.07-.18-.15-.28-.23l-25.92-18.31L212.19,261.6l22.8,16h0l0,0a40.76,40.76,0,0,0,23.53,7.14q2.35,0,4.77-.24,12.24-1.22,24.56-1.38c-.57.8-1.13,1.6-1.63,2.42v0h0l-26.69,43.89v0A40.84,40.84,0,0,0,294,392.26a41.22,41.22,0,0,0,14.41-2.61h0a69.63,69.63,0,0,0,26.15-17.38c.14-.14.26-.3.39-.45l30.83-29.18a11.16,11.16,0,0,1,13.12-.52h0L551.58,464.63l.16.1.12.09a19.31,19.31,0,0,1,5.72,5.9,16.21,16.21,0,0,0,.83,1.54A15.64,15.64,0,0,1,559.94,480.39Zm9.13-40.13-.13-.1L396.21,317.63h0a41,41,0,0,0-49.37,1.73l-.09.08-.38.3c-.13.1-.24.22-.36.33s-.25.2-.37.32L313,351.27a14.52,14.52,0,0,0-1.4,1.54,39.51,39.51,0,0,1-13.71,8.73h0a11,11,0,0,1-12.35-3.35,10.81,10.81,0,0,1-.61-12.7c0-.05,0-.1.08-.14l.21-.32,26.66-43.85a12,12,0,0,1,3.68-3.59L355.9,272h0a11.72,11.72,0,0,1,7.22-1.91h0l130.92,10.88h0c1,.08,1.92.12,2.89.12a43.18,43.18,0,0,0,13-2.16h0l40.76-12.73,53.69,172.12-27.66,8.59A49.67,49.67,0,0,0,569.07,440.26Z"/><path class="cls-1" d="M75.25,336.79a18.53,18.53,0,1,0,18.53,18.53A18.55,18.55,0,0,0,75.25,336.79Z"/><path class="cls-1" d="M246.06,174.56a12.48,12.48,0,0,0,7.62-2.6l99.81-76.83,76.18,48a12.49,12.49,0,0,0,15.23-1.48l69.92-65.87,22.67,23.94a12.51,12.51,0,0,0,9.08,3.91,12.25,12.25,0,0,0,3.38-.47,12.5,12.5,0,0,0,8.84-9.41l16.85-78.64a12.5,12.5,0,0,0-14.12-15l-79.7,12.29a12.5,12.5,0,0,0-7.17,21l23,24.26-62.82,59.19-75.37-47.5a12.5,12.5,0,0,0-14.29.67L238.43,152.15a12.5,12.5,0,0,0,7.63,22.41ZM547.4,27.62l-8.08,37.69L524.5,49.66l-.08-.09-.1-.1-15.12-16Z"/></g></g></svg>