<svg xmlns="http://www.w3.org/2000/svg" viewBox="0 0 136.58 148.05"><defs><style>.cls-1{fill-rule:evenodd;}</style></defs><title>Asset 2</title><g id="Layer_2" data-name="Layer 2"><g id="Layer_1-2" data-name="Layer 1"><path class="cls-1" d="M51.33,37.45q-6-27.95-6.82-31.52C42.56-3.12,23.66-.17,16.93,4-11.5,21.53,1.53,60.93,15.17,84.08Q53,140.78,92,146.68c20.56,4.84,45.62-2.84,44.53-27.55a17.88,17.88,0,0,0-1.91-8q-2.82-4.43-35.18-13.91Q93.21,95.71,86,103.62a18.78,18.78,0,0,1-2.2,2.11c-3.63,3-5.81,3.43-9.73,1.06C62.12,99.54,42.13,71.5,37.63,62.92q-1.91-5.23,3.75-8.85,11-6.45,9.95-16.62"/></g></g></svg>