<svg xmlns="http://www.w3.org/2000/svg" viewBox="0 0 706.64 714.57"><defs><style>.cls-1{fill:#58595b;}</style></defs><title>Asset 4</title><g id="Layer_2" data-name="Layer 2"><g id="Layer_1-2" data-name="Layer 1"><path class="cls-1" d="M512.55,544.83a17,17,0,0,0-17,17V679.44c0,.66-.39,1.13-.66,1.13H34.67c-.27,0-.67-.47-.67-1.13V182.29H147.16a35.16,35.16,0,0,0,35.13-35.13V34h312.6c.5,0,.66.17.66.67V88.59a17,17,0,0,0,34,0V34.66h0A34.7,34.7,0,0,0,494.89,0H165.06c-.41,0-.83,0-1.24.06l-.42,0c-.48.06-1,.13-1.45.22l-.4.1c-.35.08-.7.16-1,.27a5.58,5.58,0,0,0-.58.18L159,1.2l-.5.2c-.43.19-.85.39-1.27.61l-.35.21c-.32.18-.63.37-.94.57l-.41.28c-.29.2-.57.41-.85.63l-.34.28c-.38.32-.75.65-1.11,1L5,153.27a.73.73,0,0,1-.08.09c-.37.37-.72.76-1.05,1.16-.16.2-.31.42-.47.63s-.35.46-.52.7-.3.5-.45.76-.28.44-.4.67-.25.52-.38.78-.23.48-.33.73-.19.51-.29.77-.19.53-.28.8-.13.51-.2.77-.14.56-.2.84-.09.6-.14.9-.08.49-.11.75c0,.55-.08,1.11-.08,1.67V679.44c0,19.37,15.55,35.13,34.67,35.13H494.89c19.11,0,34.66-15.76,34.66-35.13V561.83A17,17,0,0,0,512.55,544.83ZM148.29,147.16a1.34,1.34,0,0,1-1.13,1.13H58L148.29,58Z"/><path class="cls-1" d="M690.7,112.43h0L602.37,61.76h0a31.33,31.33,0,0,0-42.73,11.41v0h0L445.73,272.62a17,17,0,0,0,4,21.54L411.6,360.93a54.88,54.88,0,0,1-42.36,25.22,32.1,32.1,0,0,0-29.41,30.55h0l-5.51,170.41h-202a17,17,0,1,0,0,34h218.5c.52,0,1,0,1.55-.08h.16l.17,0c.44,0,.88-.11,1.33-.2l.17,0h0c.47-.1.93-.22,1.39-.35l.18-.06.29-.1c.31-.1.61-.21.92-.33l.33-.12.2-.09c.34-.15.66-.31,1-.47l.25-.13,0,0,.37-.22c.22-.12.43-.23.65-.37l158.52-99.48h0c13.56-8.53,18.73-26.39,11.78-40.65-8-16.36-7.93-34.31.13-49.26l33.82-59.28a31.69,31.69,0,0,0,24.1-15.69v0h0L702.55,155.17h0v0A31.4,31.4,0,0,0,690.7,112.43ZM559.93,335.09l-83.4-47.85L587.72,92.55l83.93,48.15ZM440.2,379.31l.08-.11.15-.24.11-.19c.11-.17.21-.33.31-.51l31.07-54.46,59.74,34.27-31.08,54.48-.09.17-.1.17c-13,24.1-13.65,52.55-1.77,78.39L368.8,572.75l4.95-152.88A88.51,88.51,0,0,0,440.2,379.31Z"/><path class="cls-1" d="M384.48,546.13a12.5,12.5,0,0,0,17-4.7L425,500a33.23,33.23,0,0,0,5,.38,34.18,34.18,0,1,0-26.67-12.88l-23.59,41.55A12.5,12.5,0,0,0,384.48,546.13ZM430,457.18a9.12,9.12,0,1,1-9.12,9.12A9.13,9.13,0,0,1,430,457.18Z"/><path class="cls-1" d="M377.79,240.88A278.18,278.18,0,0,0,217.67,386.77,121.52,121.52,0,0,0,156.23,334,17,17,0,0,0,144,365.74a87.68,87.68,0,0,1,55.72,75.74.41.41,0,0,1,0,.11v0s0,.07,0,.11c0,.51.09,1,.17,1.52,0,.18.08.34.11.51.07.36.13.72.23,1.07s.25.85.39,1.26c0,.09.05.18.08.26a17.22,17.22,0,0,0,2.31,4.29l.1.11a13.49,13.49,0,0,0,.9,1.1c.18.21.38.4.57.59s.35.37.54.54.47.41.72.61.32.28.49.41.5.36.76.53l.58.4.71.41.74.4.64.29c.31.13.61.27.92.38l.57.2c.35.12.7.23,1.06.32l.27.08.51.11.44.1c.45.08.89.14,1.34.19l.31,0c.5.05,1,.08,1.5.08l.46,0,.64,0h.08a17.75,17.75,0,0,0,3.18-.53l.52-.16.93-.3.65-.26.75-.33.65-.32c.25-.13.49-.27.73-.41s.39-.22.58-.35q.57-.36,1.11-.78l.22-.16c.37-.29.72-.59,1.06-.91.1-.09.19-.19.28-.28q.42-.4.81-.84l.28-.32c.25-.29.49-.59.71-.89.09-.12.18-.24.26-.37.22-.3.42-.61.61-.93l.25-.41c.17-.3.33-.62.49-.94.08-.16.16-.31.23-.47s.25-.61.37-.92.25-.67.35-1,.21-.64.29-1v0s0-.08,0-.13A243.82,243.82,0,0,1,389.11,272.94a17,17,0,0,0-11.32-32.06Z"/></g></g></svg>