<svg xmlns="http://www.w3.org/2000/svg" viewBox="0 0 716.9 712.78"><defs><style>.cls-1{fill:#58595b;}</style></defs><title>Asset 1</title><g id="Layer_2" data-name="Layer 2"><g id="Layer_1-2" data-name="Layer 1"><path class="cls-1" d="M424.1,427.5l-.38-.05-.39-.06-32.42-4q-2-5.21-4.15-10.09L406.56,387l.1-.15.27-.36a34.12,34.12,0,0,0-4-43.76h0l-34.39-34.1h0a34.12,34.12,0,0,0-43.78-3.53c-.08.06-.16.14-.25.2l-.27.19-26,20q-5.06-2.28-10.12-4.2l-4.49-32.29a3,3,0,0,0-.06-.32c0-.12,0-.23,0-.34A34.15,34.15,0,0,0,250,260h-.18l-48.42.29h-.09a34.12,34.12,0,0,0-33.5,28.39c0,.11,0,.22,0,.33s0,.22-.06.33l-4.26,32.51c-3.48,1.3-6.84,2.69-10.11,4.15l-26-19.74-.3-.19c-.09-.07-.17-.15-.27-.22a34.37,34.37,0,0,0-44,4h0l-34.1,34.4v0A34.1,34.1,0,0,0,45.06,388c.1.13.2.25.29.38a1.7,1.7,0,0,0,.1.14l20,26.09c-1.42,3.24-2.75,6.6-4,10.07l-32.5,4.48-.33.06-.34.05A34.13,34.13,0,0,0,0,462.94H0v0l.29,48.5v0A34.13,34.13,0,0,0,28.69,545l.38,0,.28.05,32.51,4.26q1.95,5.22,4.15,10.12l-19.74,26c-.07.09-.12.19-.19.28s-.15.19-.22.28a34.39,34.39,0,0,0,4,44.06h0l34.4,34.1h0a33.91,33.91,0,0,0,23.92,9.84,34.26,34.26,0,0,0,19-5.77l.54-.35.33-.21.21-.17.31-.22,26.09-20q4.86,2.13,10.07,4l4.48,32.5c0,.12.05.23.07.35s0,.22,0,.33a34.3,34.3,0,0,0,33.8,28.26h.17l48.43-.29h.09a34.13,34.13,0,0,0,33.49-28.4c0-.13,0-.25.05-.37s.05-.26.07-.4l4-32.42q5.2-2,10.09-4.15l26.33,19.8.3.21c.07,0,.13.11.21.16l.33.21.53.34a34.07,34.07,0,0,0,42.89-4.54h0l34.1-34.39,0,0a34.13,34.13,0,0,0,3.5-43.76c-.06-.09-.14-.17-.2-.25s-.12-.18-.18-.27l-20-26c1.52-3.36,2.92-6.74,4.19-10.11l32.58-4.5.3-.05.38,0a34.17,34.17,0,0,0,28-33.84V461.33A34.88,34.88,0,0,0,424.1,427.5ZM377,516.78l-.41.08c-.32,0-.65.11-1,.18l-.72.19-.79.23c-.28.09-.55.19-.82.3l-.63.26c-.3.12-.58.26-.87.4l-.55.3c-.28.15-.55.32-.82.49s-.37.24-.55.36-.49.35-.72.53-.39.31-.58.47-.4.34-.59.52-.41.4-.61.61-.32.33-.47.5-.4.47-.59.72-.27.34-.4.52-.35.5-.52.76-.25.41-.37.61-.28.49-.41.74-.26.51-.37.78-.2.42-.29.65-.24.64-.35,1c0,.13-.09.24-.13.36a143.29,143.29,0,0,1-10,24.25,3.73,3.73,0,0,0-.16.35c-.15.3-.29.6-.42.91s-.18.45-.26.68-.19.53-.27.79-.17.55-.24.83-.11.45-.15.68-.13.62-.17.93-.06.41-.08.62-.07.64-.08.95,0,.45,0,.67a8.61,8.61,0,0,0,0,.88c0,.26,0,.51.05.76s.05.52.08.78.09.57.14.85.09.45.14.67.15.6.24.9.12.42.19.63.21.58.32.87.18.43.28.65.24.51.37.76.27.5.41.75.24.41.37.61.37.56.57.83c.08.11.14.22.22.32l25.86,33.7a1.07,1.07,0,0,1-.08,1.37h0l-34.1,34.4a1.1,1.1,0,0,1-1.45.14l-33.94-25.52-.32-.22-.83-.56c-.2-.13-.41-.25-.62-.37l-.74-.4c-.26-.12-.51-.25-.77-.36l-.65-.27c-.29-.11-.59-.22-.88-.31l-.62-.19c-.3-.09-.6-.16-.91-.23l-.67-.13c-.28-.06-.57-.1-.86-.14l-.77-.07-.76,0H301l-.66,0c-.32,0-.63.05-.95.09l-.62.08c-.32,0-.63.11-.94.18l-.67.16-.83.24-.78.28c-.23.08-.45.17-.68.27s-.61.27-.9.42a3.78,3.78,0,0,0-.35.17,140.75,140.75,0,0,1-24.25,10l-.41.16c-.32.11-.63.22-.93.34l-.69.31-.74.36-.77.44-.58.36c-.26.18-.52.36-.78.56l-.5.38c-.24.2-.48.4-.72.62l-.48.45-.61.63c-.17.19-.34.38-.5.58s-.32.4-.48.6l-.51.71-.36.56c-.17.27-.33.54-.48.82s-.19.37-.29.56-.27.57-.4.86-.17.43-.25.65-.2.54-.29.82-.16.54-.23.82-.12.46-.17.7-.13.68-.18,1c0,.13-.05.26-.07.4l-5.21,42a1.1,1.1,0,0,1-1.12.91h0l-48.43.29h-.05a1.44,1.44,0,0,1-1.31-1.07l-5.79-42c0-.13-.05-.26-.07-.39-.06-.33-.12-.66-.19-1l-.18-.7q-.1-.4-.24-.81c-.09-.27-.19-.54-.29-.8s-.17-.44-.27-.66-.25-.56-.39-.83l-.31-.59c-.15-.27-.31-.53-.48-.79s-.25-.39-.38-.58-.33-.47-.5-.69-.33-.41-.5-.61-.33-.38-.5-.56-.41-.43-.63-.64l-.48-.44c-.24-.21-.48-.42-.73-.62l-.51-.38c-.25-.18-.51-.36-.78-.53s-.39-.25-.59-.36-.5-.29-.76-.42-.5-.25-.75-.36l-.67-.29c-.31-.13-.63-.24-1-.35l-.37-.13a141.37,141.37,0,0,1-24.24-9.73l-.35-.16c-.3-.15-.61-.29-.92-.42s-.45-.18-.67-.26l-.8-.28-.83-.23-.67-.16c-.31-.06-.62-.12-.93-.16l-.63-.08c-.32,0-.63-.07-.95-.08l-.66,0c-.3,0-.6,0-.9,0l-.74,0c-.26,0-.53.05-.79.09s-.56.08-.83.14l-.7.14-.88.23-.64.2c-.29.1-.57.2-.85.32l-.68.28-.74.36c-.26.13-.51.28-.76.42l-.6.36c-.29.19-.57.38-.84.59a3.37,3.37,0,0,0-.31.21l-33.71,25.86a1.07,1.07,0,0,1-1.37-.08h0L73.1,606.66a1.51,1.51,0,0,1-.15-1.75l25.48-33.59c.09-.11.15-.22.23-.33.2-.28.39-.55.57-.83s.25-.42.37-.64.28-.48.4-.72.25-.53.37-.79l.27-.63c.11-.3.22-.6.32-.9s.13-.4.18-.6.17-.62.24-.93.09-.43.13-.64.1-.59.14-.88,0-.5.07-.75,0-.52,0-.79,0-.57,0-.85,0-.46,0-.69,0-.62-.09-.93,0-.43-.09-.65-.1-.6-.16-.91-.11-.46-.17-.69-.15-.54-.24-.81-.18-.55-.28-.82-.17-.43-.26-.65-.28-.63-.44-.94c-.06-.11-.1-.23-.16-.35a141.42,141.42,0,0,1-10-24.25c0-.12-.09-.23-.13-.35q-.17-.5-.36-1c-.09-.23-.19-.44-.29-.66s-.24-.51-.37-.76l-.42-.74c-.12-.2-.24-.4-.37-.6s-.35-.52-.54-.77-.25-.34-.39-.51l-.61-.72c-.15-.16-.3-.33-.46-.49s-.41-.41-.63-.61-.38-.34-.58-.51l-.59-.48-.72-.51c-.18-.13-.37-.25-.56-.37s-.54-.32-.82-.48l-.56-.29-.86-.4-.64-.26-.82-.28c-.26-.09-.53-.16-.8-.23l-.71-.18q-.48-.11-1-.18l-.38-.07-42-5.5a1.12,1.12,0,0,1-.93-1.13v0L33,462.8c0-.67.68-.92,1-1L76.08,456l.1,0a16.68,16.68,0,0,0,3-.71l.55-.21c.27-.1.54-.21.8-.33l.62-.28.71-.38.57-.32c.4-.24.78-.5,1.15-.77l.29-.22c.3-.23.59-.47.88-.72l.33-.3c.26-.25.52-.5.76-.76l.28-.3c.26-.29.51-.59.75-.89.06-.09.13-.17.2-.26.27-.37.53-.74.77-1.13l.07-.11c.27-.43.51-.87.74-1.33,0-.11.09-.22.14-.32.16-.33.3-.66.44-1s.16-.45.23-.67.12-.33.17-.49a142.64,142.64,0,0,1,9.73-24.25c.06-.11.11-.23.17-.35.14-.3.28-.6.41-.91s.18-.45.27-.68l.27-.79c.08-.27.16-.55.23-.83s.11-.45.16-.67.12-.62.17-.93,0-.42.08-.63.06-.63.08-.95,0-.44,0-.66,0-.6,0-.89,0-.51-.05-.76,0-.52-.09-.77-.08-.57-.14-.86-.09-.45-.14-.67-.15-.6-.23-.9-.13-.42-.2-.62-.2-.59-.32-.87-.18-.44-.28-.66-.24-.51-.37-.76-.26-.5-.4-.74-.25-.42-.38-.62-.37-.56-.57-.83c-.08-.1-.14-.21-.22-.31L71.93,368.85a1.07,1.07,0,0,1,.09-1.37h0l34.1-34.39a1.52,1.52,0,0,1,1.75-.15l33.33,25.29.1.07.16.13.11.07c.29.22.59.42.89.62l.3.19q.38.24.78.45c.12.07.24.14.37.2s.5.25.76.36.55.24.83.35l.6.22.64.2.52.15.63.15.58.12.57.09.75.09.42,0c.41,0,.83,0,1.24,0a16.63,16.63,0,0,0,3.63-.41l.07,0a13.86,13.86,0,0,0,1.64-.47l.23-.08c.5-.18,1-.38,1.47-.61l.35-.17.34-.17a142.23,142.23,0,0,1,24.25-10l.29-.11c.35-.12.69-.24,1-.38l.55-.24.82-.4.63-.34.66-.41c.22-.15.45-.29.66-.44l.55-.42c.22-.18.44-.34.66-.53s.37-.35.56-.52.36-.33.53-.51c.35-.36.68-.75,1-1.14l.15-.2c.27-.35.52-.7.76-1.07a2.26,2.26,0,0,0,.16-.26c.22-.35.43-.7.63-1.07l.17-.35c.17-.34.33-.68.48-1l.18-.49c.12-.31.23-.61.33-.93s.13-.45.19-.68.13-.52.19-.78.11-.57.15-.85.06-.29.08-.44l5.51-42a1.12,1.12,0,0,1,1.13-.93h0l48.42-.29H250c.66,0,.92.69,1,1l5.81,41.8c0,.14.05.28.07.42.05.3.1.59.17.88s.12.5.19.75.12.47.2.7.21.62.33.93c.06.16.12.32.19.48.15.36.32.72.5,1.07l.15.31c.22.39.45.77.69,1.15,0,0,.07.12.11.17a16.48,16.48,0,0,0,1.92,2.39c.17.17.35.33.53.49s.37.36.57.53.43.34.64.51.37.29.57.43.44.29.66.43.44.28.67.41.41.23.62.33.56.28.84.41.35.16.54.23c.35.14.71.27,1.07.39l.29.1a143.88,143.88,0,0,1,24.24,10l.27.14.36.17c.47.22,1,.42,1.44.6l.23.07a13.86,13.86,0,0,0,1.64.47l.05,0a16.47,16.47,0,0,0,3.62.41c.42,0,.83,0,1.24-.06l.42,0c.25,0,.51-.05.76-.09l.57-.1.6-.12.63-.15.53-.15.64-.2c.21-.07.41-.16.62-.24s.55-.22.82-.34l.76-.36.39-.22c.26-.14.52-.29.77-.45l.3-.19c.31-.2.6-.41.89-.63l.12-.08.16-.12.09-.07,33.46-25.67a1,1,0,0,1,1.36.09h0l34.39,34.1a1.11,1.11,0,0,1,.15,1.45l-25.53,33.95a3.37,3.37,0,0,0-.21.31c-.2.27-.39.55-.57.83l-.37.62c-.13.25-.27.49-.4.75l-.36.76-.27.66c-.11.29-.22.58-.31.87s-.13.41-.19.62-.16.61-.23.91-.09.44-.13.67-.1.57-.14.86-.05.51-.07.77,0,.51-.05.77,0,.58,0,.87,0,.45,0,.68.05.62.08.94l.09.63c0,.31.11.62.18.92s.1.46.16.69.15.54.24.81.18.54.28.8.17.45.27.67.28.61.43.91c.05.11.1.23.16.34a143,143,0,0,1,10,24.26c.06.19.13.38.2.57s.14.41.22.61a16.91,16.91,0,0,0,1.35,2.65c.05.07.1.14.14.21.23.35.47.69.73,1l.21.27a10.66,10.66,0,0,0,.76.88,3.45,3.45,0,0,0,.26.28c.27.28.54.55.83.81l.26.23c.37.32.74.62,1.13.9.12.09.26.17.39.25s.53.36.81.53l.58.32c.23.13.47.25.71.37l.61.28.87.34c.16.06.32.13.49.18a13.74,13.74,0,0,0,1.43.4l.25.05c.43.1.87.18,1.31.24l.16,0,42,5.21a1.72,1.72,0,0,1,1.18,1.42v48.21A1.26,1.26,0,0,1,419,511Z"/><path class="cls-1" d="M314.46,420.22A109.95,109.95,0,1,0,211.06,595.1a13.27,13.27,0,0,0,1.77.12,12.5,12.5,0,0,0,1.75-24.88,85,85,0,1,1,87.87-46l-8.61-11.81h0c-3.9-5.35-9.61-7.9-15.67-7A17.53,17.53,0,0,0,264.55,517h0L246,571.12h0a16.67,16.67,0,0,0,15.88,22.13h.26l57.32-.88h0a17.09,17.09,0,0,0,14.94-9.27,16.74,16.74,0,0,0-1.79-17.34h0l-14.07-19.3A110.12,110.12,0,0,0,314.46,420.22ZM283,540.18l20,27.44-29.56.45Z"/><path class="cls-1" d="M702.82,188.49l-.26-.13-.24-.14-23-11.91q-.09-3.83-.4-7.69l21.85-14.13.19-.13.29-.19c.13-.09.24-.2.37-.29l.48-.37a28.11,28.11,0,0,0,8.21-34.24l-.06-.14-16.46-35h0A28.08,28.08,0,0,0,661,69l-.3.1-.31.08-24.66,7.93c-1.91-1.84-3.84-3.62-5.8-5.32l5.5-25.09c0-.09,0-.18,0-.28s.06-.22.08-.34a28.22,28.22,0,0,0-18.18-31.43h0L580.9,1.66h0A28.06,28.06,0,0,0,547,14.08a2.1,2.1,0,0,0-.13.26,1.88,1.88,0,0,0-.14.24l-11.92,23c-2.63.06-5.29.19-8,.4L513,16.4l-.19-.26c-.05-.08-.1-.17-.16-.25a28.16,28.16,0,0,0-35-9.29h0l-35,16.46h0a28.09,28.09,0,0,0-15.18,32.81c0,.1.06.19.09.29s0,.14.05.21l7.75,24.77c-1.76,1.85-3.48,3.78-5.18,5.79l-25.33-5.5-.31-.05-.29-.07a28,28,0,0,0-31.1,18.11s0,0,0,0L359.93,135.9v0a28.15,28.15,0,0,0,12.7,33.94l.36.19.13.08L396,182c0,2.74.1,5.39.27,7.95l-21.61,13.89-.24.18-.27.16a28.16,28.16,0,0,0-9.29,35h0l16.46,35h0c0,.1.1.19.15.29s.21.43.32.63a28.22,28.22,0,0,0,31.91,14.43l.43-.1.29-.07a1.17,1.17,0,0,1,.2-.06l.33-.1,24.46-7.71c1.85,1.75,3.77,3.46,5.78,5.16L439.66,312c0,.1,0,.2-.05.3s-.05.2-.06.3a28.11,28.11,0,0,0,18.4,31.1h0L494.43,357h0c.22.08.45.13.67.2l.49.16a27.72,27.72,0,0,0,8.25,1.28A28.28,28.28,0,0,0,528,344.89l.25-.41.12-.19c0-.05.05-.11.08-.16s.13-.22.19-.34l11.87-22.87c2.66,0,5.23-.1,7.73-.26l14.16,21.69.13.17c.06.08.1.17.16.25a28.13,28.13,0,0,0,35,9.29h0l35-16.45h0a28.29,28.29,0,0,0,15.18-33.1c0-.1-.07-.2-.1-.31s-.06-.22-.09-.33l-7.9-24.36c1.83-1.89,3.6-3.82,5.3-5.77l25.08,5.5.3,0,.33.07c.2,0,.39,0,.58.08l.45.05a27.9,27.9,0,0,0,30-17.58c.09-.19.16-.39.24-.58s.12-.29.17-.44h0s0,0,0,0l12.94-36.45s0,0,0-.06A28,28,0,0,0,702.82,188.49Zm-60.1,54-.33-.05c-.29-.06-.59-.11-.88-.15s-.39,0-.58-.06l-.76-.05h-.68l-.65,0-.73.07-.62.08-.7.14c-.21,0-.43.09-.64.15l-.62.18-.71.24-.51.21-.77.34-.42.22c-.26.14-.52.29-.77.45l-.38.24q-.37.24-.72.51l-.4.32c-.21.17-.41.35-.61.53l-.47.46c-.15.15-.31.31-.46.48s-.36.42-.53.64l-.24.28a113.84,113.84,0,0,1-14.15,15.44c-.09.08-.16.17-.25.26s-.41.4-.61.62-.27.31-.41.47-.3.36-.44.55-.29.41-.43.61-.22.32-.32.49-.28.47-.4.7-.17.32-.25.48-.23.49-.33.73l-.21.52c-.09.24-.17.48-.24.71s-.13.41-.18.62-.11.42-.15.64-.1.47-.14.71,0,.39-.08.58-.05.52-.07.79,0,.36,0,.55,0,.53,0,.79,0,.4,0,.6,0,.48.07.72.08.48.12.72.07.4.12.6a8.19,8.19,0,0,0,.23.85c0,.11,0,.23.09.34l10.4,32.06a.49.49,0,0,1-.11.34h0l-35,16.45h0s-.1,0-.2-.08l-18.57-28.43c-.06-.1-.14-.19-.21-.29s-.29-.42-.45-.62-.29-.36-.44-.54l-.41-.46c-.19-.2-.39-.4-.58-.58l-.36-.33c-.23-.2-.46-.4-.7-.58l-.34-.25c-.25-.18-.5-.36-.76-.52l-.38-.23c-.25-.15-.5-.29-.76-.42l-.49-.23c-.23-.11-.46-.21-.7-.3l-.61-.23-.63-.2c-.23-.07-.46-.12-.7-.18l-.6-.13-.73-.12-.63-.07-.7,0h-.72l-.61,0c-.28,0-.56,0-.85.08l-.31,0a110.78,110.78,0,0,1-20.66.76c-.1,0-.2,0-.3,0h-.91l-.51,0c-.29,0-.57.05-.86.09l-.51.08c-.29.05-.56.11-.84.18l-.47.12c-.3.09-.59.18-.88.29l-.35.12c-.33.13-.66.27-1,.42l-.19.1c-.37.18-.72.37-1.07.58l0,0a13.8,13.8,0,0,0-3.07,2.55l0,0q-.4.46-.78,1l-.14.18c-.2.28-.4.57-.59.87l-.23.41c-.09.16-.2.32-.29.49l-15.64,30.13a1.07,1.07,0,0,0-.14.18l-36.39-13.21h0a1.08,1.08,0,0,1-.3-.17l7.19-33.07c0-.12,0-.23.06-.35.05-.28.1-.56.14-.84s0-.41.06-.62,0-.47,0-.71,0-.49,0-.73,0-.39,0-.59-.05-.54-.08-.8,0-.36-.07-.53-.09-.53-.15-.8-.09-.36-.13-.54-.14-.49-.21-.72l-.21-.61c-.08-.21-.16-.41-.25-.61s-.19-.45-.3-.67-.17-.35-.27-.52-.25-.46-.39-.68l-.3-.47c-.15-.21-.3-.43-.46-.64s-.25-.32-.38-.47-.31-.37-.47-.54-.33-.35-.51-.52a5.66,5.66,0,0,0-.43-.42c-.22-.2-.45-.38-.68-.56l-.25-.22a111.7,111.7,0,0,1-15.44-13.85l-.25-.24c-.19-.2-.39-.4-.59-.58s-.32-.29-.48-.42-.35-.3-.54-.44l-.6-.43-.48-.31c-.23-.15-.47-.29-.71-.42s-.3-.16-.46-.23a7.43,7.43,0,0,0-.76-.35l-.49-.2-.74-.26-.58-.17-.69-.17-.67-.13-.63-.09-.74-.07-.6,0h-.74l-.65,0-.67.07-.75.12-.56.11c-.29.06-.58.14-.86.22l-.3.08L407,262.4a.48.48,0,0,1-.36-.11h0l-16.46-35h0s0-.09.06-.18l28.36-18.24c.1-.06.18-.13.27-.19.25-.17.49-.33.72-.51l.46-.38.55-.49c.18-.16.34-.33.51-.5s.28-.29.41-.45.34-.4.5-.6l.34-.44c.15-.22.3-.44.44-.66s.21-.32.31-.49.24-.43.35-.65.2-.38.29-.58l.26-.6c.09-.23.17-.46.25-.69s.12-.37.18-.55.14-.51.2-.77.08-.36.12-.54.09-.51.13-.78.05-.4.07-.6,0-.47.05-.71,0-.49,0-.74,0-.39,0-.59a8.46,8.46,0,0,0-.08-.88c0-.11,0-.22,0-.33a113.8,113.8,0,0,1-.75-20.95c0-.11,0-.22,0-.33,0-.29,0-.57,0-.86s0-.41,0-.61-.05-.48-.08-.71-.07-.48-.12-.72a5.41,5.41,0,0,0-.12-.58c-.06-.26-.13-.52-.2-.77s-.11-.35-.17-.52-.18-.51-.28-.75-.14-.35-.22-.52-.21-.46-.33-.68-.2-.38-.3-.56l-.35-.57-.41-.6c-.11-.16-.23-.32-.35-.47s-.33-.41-.5-.61l-.38-.41c-.18-.19-.37-.37-.56-.55s-.3-.27-.45-.41l-.55-.45c-.19-.15-.39-.29-.59-.43l-.5-.33c-.24-.16-.5-.3-.75-.44a2,2,0,0,0-.28-.16l-30.13-15.65c-.11-.07-.16-.14-.18-.14L399.48,109v0l0,0,33.22,7.22.15,0c.39.08.77.14,1.15.19l.33,0c.43,0,.86.07,1.29.07h.07a14.13,14.13,0,0,0,1.46-.08l.28,0q.6-.07,1.2-.21l.31-.06a14.91,14.91,0,0,0,2.7-.95l.44-.22c.29-.15.57-.31.85-.48l.42-.26q.57-.37,1.11-.81a3.22,3.22,0,0,0,.28-.24c.3-.25.58-.51.86-.79l.27-.28a14.67,14.67,0,0,0,1-1.2,111.73,111.73,0,0,1,13.82-15.4l.23-.23a8.21,8.21,0,0,0,.58-.6c.15-.15.28-.31.42-.46s.3-.36.44-.55l.43-.59.32-.5c.14-.22.27-.45.4-.69a5.39,5.39,0,0,0,.25-.48c.12-.24.23-.48.34-.72l.21-.53c.09-.24.17-.47.25-.71l.18-.62c.06-.22.11-.43.16-.64s.1-.49.14-.73.06-.38.08-.57.06-.53.07-.79a5.21,5.21,0,0,0,0-.55c0-.26,0-.53,0-.79l0-.6c0-.24,0-.47-.07-.71s-.07-.48-.11-.72l-.12-.59c-.06-.28-.14-.56-.22-.83,0-.1,0-.2-.07-.3L454.5,48.46l.11-.07h0l35-16.46h0a.16.16,0,0,1,.18.05L508,60.35l.06.07a14,14,0,0,0,1,1.32,2.73,2.73,0,0,0,.23.25,12.33,12.33,0,0,0,.86.91l.36.33a14.6,14.6,0,0,0,1.15.93l.32.21c.33.22.66.43,1,.62.14.08.28.16.43.23.41.21.82.41,1.25.58l.13,0a14.94,14.94,0,0,0,1.52.48l.28.06c.43.1.86.19,1.3.25l.33,0a13.61,13.61,0,0,0,1.56.1h0a13.63,13.63,0,0,0,2-.15,114.55,114.55,0,0,1,20.87-1c.1,0,.2,0,.3,0h.31l.7,0h.17a11,11,0,0,0,1.17-.12l.47-.08c.24,0,.47-.09.71-.15l.5-.12a9.78,9.78,0,0,0,1-.31c.19-.06.36-.13.54-.2l.59-.25.47-.22c.32-.17.64-.34.95-.52l.3-.2c.25-.16.5-.32.74-.5l.27-.2a14.39,14.39,0,0,0,1.78-1.63l.21-.24c.2-.23.39-.47.58-.71a2.92,2.92,0,0,0,.21-.28c.22-.3.44-.62.64-.94l.23-.41c.08-.15.17-.29.24-.44L571.33,28a.73.73,0,0,1,.16,0h0L607.94,41a.46.46,0,0,1,0,.28l-7.22,32.94c0,.11,0,.23-.06.34-.06.29-.11.57-.15.86l-.06.61c0,.24,0,.48,0,.72s0,.49,0,.73,0,.4,0,.59,0,.53.07.8,0,.36.07.54.09.52.15.78.09.37.13.56.13.47.21.71l.21.62.24.6c.1.23.2.45.31.67s.17.34.26.51.26.47.4.69.19.31.29.46.3.44.47.65l.37.47.47.55.51.52.44.42c.22.19.44.38.67.56s.17.15.27.22a114.38,114.38,0,0,1,15.44,14.15.94.94,0,0,1,.1.1c.27.29.55.56.85.83l.21.19c.33.29.67.56,1,.82.1.07.2.12.29.19.26.17.52.34.79.5l.47.26.72.36.44.2c.38.16.77.3,1.16.43l.28.08,1,.26.34.06c.35.07.7.13,1.06.17l.23,0a12,12,0,0,0,1.34.08c.4,0,.81,0,1.22-.06l.26,0c.29,0,.59-.07.88-.12l.47-.1q.33-.06.66-.15c.19,0,.37-.1.56-.15l.24-.07L668.44,96a.29.29,0,0,1,.06.1l16.47,35h0a.64.64,0,0,1,.08.27l-28.53,18.45a2.69,2.69,0,0,0-.27.2c-.24.16-.47.32-.7.5a5.71,5.71,0,0,0-.47.39c-.19.15-.36.31-.54.47l-.52.51-.4.44-.51.61-.32.43c-.16.22-.31.44-.45.67s-.2.32-.3.48-.25.44-.36.66-.19.38-.28.58-.18.4-.26.61-.18.45-.26.68-.12.37-.17.56-.15.5-.21.76-.08.36-.11.54-.1.52-.13.78,0,.4-.07.6,0,.48-.05.72,0,.48,0,.72,0,.4,0,.61,0,.57.08.86c0,.11,0,.22,0,.33a111.76,111.76,0,0,1,1,20.65v.33c0,.29,0,.58,0,.86s0,.41,0,.61,0,.48.07.71l.12.72c0,.2.08.39.13.58s.12.52.2.77.11.35.16.52.18.51.28.75.15.35.22.52l.33.68c.1.19.2.38.31.56s.23.38.34.57.27.41.42.6.23.32.35.47.33.41.5.61.25.28.38.41.36.37.55.55.3.28.46.41l.55.45c.19.15.39.29.59.43s.32.23.49.33.5.3.76.44a2.61,2.61,0,0,0,.28.17l30.06,15.6,0,.16v0s0,0,0,0l-12.92,36.41a.59.59,0,0,1-.33.32Z"/><path class="cls-1" d="M601.4,117a88.05,88.05,0,0,0-139.87,16.78L442.58,131h0c-5.35-.76-10.22,1.11-13,5a13.94,13.94,0,0,0-1,14.15h0l0,0,20.74,40.53c0,.06.07.1.1.16a13.4,13.4,0,0,0,9.9,7,13.92,13.92,0,0,0,1.93.14,13.32,13.32,0,0,0,8.91-3.42c.14-.12.27-.26.4-.39s.25-.22.36-.34h0l31-33h0a13.7,13.7,0,0,0,3-13.71,13.2,13.2,0,0,0-10.66-8.7h0l-10.87-1.56a68,68,0,1,1,1.37,83.64,10,10,0,0,0-15.57,12.56A88,88,0,1,0,601.4,117ZM462.79,173.27l-10.58-20.68,26.46,3.8Z"/></g></g></svg>